<svg width="32" height="32" viewBox="0 0 32 32" fill="none" xmlns="http://www.w3.org/2000/svg">
<path d="M15.9998 29.3333C21.1452 29.3333 25.3332 25.1453 25.3332 20C25.3332 14.8547 21.1452 10.6667 15.9998 10.6667C10.8532 10.6667 6.6665 14.8547 6.6665 20C6.6665 25.1453 10.8532 29.3333 15.9998 29.3333ZM15.9998 13.3333C19.6758 13.3333 22.6665 16.324 22.6665 20C22.6665 23.676 19.6758 26.6667 15.9998 26.6667C12.3238 26.6667 9.33317 23.676 9.33317 20C9.33317 16.324 12.3238 13.3333 15.9998 13.3333ZM14.6665 2.66667H9.33317V10.024C10.9287 8.9563 12.7582 8.28901 14.6665 8.07867V2.66667ZM22.6665 2.66667H17.3332V8.07867C19.2415 8.28901 21.0709 8.9563 22.6665 10.024V2.66667Z" fill="#FFEB83"/>
<path d="M13.3585 21.0813L12.7345 24.716L15.9998 23L19.2652 24.716L18.6412 21.0813L21.2838 18.5053L17.6332 17.9747L15.9998 14.6667L14.3665 17.9747L10.7158 18.5053L13.3585 21.0813Z" fill="#FFE141"/>
</svg>
